/* XPM */
static char *_2399_cbcfe40addbf892a0a5cd885367ba0aed00c1c3854226e22edd7a61ace18463b[] = {
/* columns rows colors chars-per-pixel */
"64 64 9 1 ",
"  c #7E0627",
". c #7C0827",
"X c #7E062A",
"o c #7E092A",
"O c #800627",
"+ c #820827",
"@ c #80072A",
"# c #82092B",
"$ c #850C30",
/* pixels */
"o.#.+  O#o#o##+#OOOOO##$ooXoooooooo$XXXXXXXoXoXXXo$o$$X@$X@@@X@O",
"#o.#o #  ..ooo.#O@O#O@oooooooXXoooXXXX$X$oXoooooXXXXXXXXXXXX@@O#",
"o#.. +# O#.o.#++@@#+ #Ooo$oo$XXXo$oXXXXXXXXXo$oooXXXX$X$@X$XOOOO",
"oo###O ###.+.#+.+##+O##Xooo$XXXXoo$XXXX$XoXXooo$$XX$$X$X$X@@OO O",
".+    # #o O+#++#@#+### oo$@o@$XXXXX$X$XXX$$XX$@X$XX$$$XOO#+##O#",
".+  # +O###O###O@##+ ## X$@@@$@$$X$X$$$$$XX@@X@$$X$$$XXX#  ####O",
" O+##+# #OOO@+#++++## + X# X##@@$X$$$XX$@$$@$X@XX$$X$XX$##++### ",
"# #+### O#O@@++++####O+#X$@@$$$$$$X$$X$$@X$$X$@@X$X$$$$X#######O",
"+### OO #O +##$OO#$OO### #O#$##OX$XXoooooXXXXX@#X$@###XX##@@@#O@",
"###O +### #.o#++# +++#####+.O#ooXX$XoooXo$$X@$@@###oXXX$  ##@O@O",
"  #  O#+ .#...O #++#O OO  #  $#.XoXXooooX$X$#X O ##oX $X@#X## ##",
"O O# ### o#.##OO##O+OoO#O+#oo.#.oXXXooooXXX$@@@@#O#ooooo@$#@#OO#",
"  OO#+# #o.o. #+ ####OO####.#  o$oXXXXXoXX$XX$@@O#o oooo##@X##O#",
"###  # +## ##.## O##  +## O+....o$XXoXooXXXoXX@@# o.ooooX#X O#  ",
" ##O   o+++ $########O+#####.##.oo$$$$o$XXX$X$X# #o.XXooo$o#  O ",
"#+OO  O+ #O++#+#++ ####  #+..+..ooXXooooXXX$XXX@ #..ooooooo  O##",
"###+  ### #O  ##O# O##+###+#..#.XXX$$XXXX$$XXXXXO##+##X@X$X@@$@@",
"#+#+  ##+ +#  O##+# ##+OO+ oo+.#Xo$oX$$$$XXXXX$X####@@@X@X@@@#@@",
" O##O#####+# OO#OO#  #  O ..o...oooo$XX$XX$$$X$X####@@XXX@$@OO@O",
"  #O#+###+O##  #.O#OO O###+##o#oooXoX$X$$$X$$XX$$$#$$@$$$XX@#O@#",
"+#+##+###OO### O###O# O###+.oooooooXX$X$XXXXX$X$$$$$XX@@#@X@ O##",
"####+#+#####+#####O ##+#+#+..o.ooooo$X$XX$$$XX$X@X#X@@$XX$@OOOOo",
"+ ## #O  #+##O#+##  +###+#+o+o#ooooo$XXXX$XXXXX$@XXX$$XX@##@   #",
"#+  #O#O   O    +#+#O+#####+o.o#ooooXX$XXXXX$o$oX$XoXX@$$@#O#  #",
"##### #O # O+####+##O+##+##. Xoo..XooXooo$XX$XooXoo$XXX$XXoXo$oX",
" O+#  +OO O #++##+####O##++#X$#oo.XXXooooXXoXXooXXoo$XXoXXooXXX ",
"+O##O#+  # ###+##O###..+#+#.XX#Xooooooo.X$XX$o$oXXXoXXXXXXoX  O#",
"###+## ##O#OO# ####+#+#oo###X$@@oooooX..XXX$$oooXXXXoXooXXXX##O#",
"## OOO ####  #+#+##+#+##.##oo#$@$XXXooooXX$XX$XXXXXXo$oooXXo#O#+",
" + O# O $###+#+O# +#.##.#.## #@$XX$$$oooXXXXXX$XXXXooooooXX###+#",
"oOOO###++#  #####+#+###+..##X@#@@$X$ooooX$XXXXXXXXXXoooooo. ## #",
"# #####+++   O######O#### o#X@#@X$$o$o$$$X$$X$XX$$XXooooooo O#  ",
"OO$#O#+ +oo#o####+#O ####+##  ##@$##$@@$XX$XXXX$$oXXX$XXXXoX$XX#",
"@@#+   +...##+#O#####++O ##O#O# @@OO@@X@$XX$$XXXoXXXX$XXXXXXX$X$",
"O++OOO+#O.#...o #+ O#+###+ ##+# @##@X@$$XX$XXXXXXX$XXXX$$ooo @@X",
"++OOO###O.#.o+++##  ##O+#   +#+#@@##X@@@$X$o$XXXXXX$$$XXXXXX  OO",
"@@@@+#O##+.#++#### + #### #++#o+o oo@#XX$$oo$oXoXX$$$$XX$XX@ O O",
"+@$+#+#O#+O##### O$#O ##+  #o+# XooX#$XXoXXooXooX$XXXX$X@@#X@@#O",
"+++$######O+###++###  ####O#+##+ooooo$Xoo$XoXXXXXo$$$$$$$@##O##O",
"##@O##O#O#  #.+##+O+#O +#+ ##o+#oooXXooo$$o$XoXoXXo$$XXXX$@@#+OO",
"##@+@++@##..++#. #  ##  ##.+o++#oo. oooooooooooo$XXXX$X@@$XX$XX ",
"@O+#+OOO####..+#+ ++OO#O+#+#+.##.##.o$$oooooooooXoooXXX$XXXXX$##",
"O#+@@OO$#.#...+## ##+ #O#+$+++##....ooooooooooooo$XXX$XX@X$$@@$$",
"#O#+OO#O#o#o+o++#  ### ##++#+..O#+#.oooooooooooooXXXXX$XX$$XX@@#",
"##O OO##+#o##. +## ### O++####+#o.ooo#oooooooooo$XXoXXX$XX$X@@$$",
" +##O$####o+#o##+#O  O# .######..+#oooooooooooooooooXX$X@$$@@X@@",
"#+OO  #O+#+.##+####++##O+######.ooo+oo.oooooooo$$XoX@@XX$@$XXX$X",
" ##O###O..oooo##+#####+##.#.#..###..o...ooooooooXXXXXX$$$XX@@$@X",
"O#+ ##.++ooo#o++O#O# #+O  ###o#.ooooooo..o....oo$oX$#$$$@$@X$X@$",
"###O++##+##o#o#.###+#O###O##.##oo.oo.oooo....oooooX$#@#@@@@X$XX@",
"##  ++$$###+.+#####+##+o##+oo+o#..oo.ooooo.....oXX$X#@$$$$$X@$$$",
"+###++$#+o+#++##  +##++#++.#o#o.o.o.oooooo...o.o$X$$#@@#X@@$@@$@",
"#####$$#+#########O###+####+##o.ooo.ooooo..oXoooX@##O@X@@$@#$@@@",
"###++$# ####+####+####+####..o#oooooooooooooooooX@@##OXX@$@###$@",
"O###++#######+#+#+##+#O##++ .+#+..o..oooooooXXXX@XX@#oXo@X$##@$$",
"+ ##+++##+ + #+####O +##++++...oo..o..ooooo.XXX$o$ooX$$.X@###@@$",
"#### ##+O++#  O#O##OO#Oo# OoX  Xoo.....oXXXXXXXXooXooXoXX@$XXXX$",
"#+## +#O #### O O# O# ##$# oo  Xooooo.ooXXXXXoX$ooXoXXoXX$@$XX@$",
"##O######+# +#O###OO## #o$XooXXXo.o.ooooX$XXXXX$ooXooXXXXX$X@@$$",
"#+ O  # # + ## ####OO#  #o$XX XXooooooo$$XXXX$XXXXXoXXX$XXX$@XX@",
"   O#O###  #++  +##O@#XXX#@$@$$$$@@@$o$XX$X$X$XX$$XXo$o$#@#$@@@@",
"+++#+# +## O##  ##++@@@@##XX$$@$XX$$$$$XXXXXXX$XX$$X$o$$X@@#@@O@",
"O # O#  #+ +###O##O#@@$X$@@$$@X$$@X$$$#$X$X$$XX$$XX$$XX$#@#@#@O@",
"#O##O#  ##OO###+###OOO@XX@X$$X$$$X$$X##$$X$X$X$XXXXX$X$$$@@##@O#"
};
