/* XPM */
static char *_fe72ccea7ca4954e68acef9d1b7082a9w0GCYJ7jh6ymBpT[] = {
/* columns rows colors chars-per-pixel */
"64 64 243 2 ",
"   c #311771",
".  c #322173",
"X  c #362979",
"o  c #3C3C7C",
"O  c #312171",
"+  c #572C6D",
"@  c #5A396D",
"#  c #583A74",
"$  c #562B70",
"%  c #6A3664",
"&  c #6C3965",
"*  c #633A6B",
"=  c #6C3A6A",
"-  c #683767",
";  c #71396A",
":  c #6E375F",
">  c #3C437D",
",  c #44447D",
"<  c #584877",
"1  c #5D547B",
"2  c #47507F",
"3  c #6B4266",
"4  c #65446C",
"5  c #6C436B",
"6  c #65486D",
"7  c #71436C",
"8  c #764369",
"9  c #7B536D",
"0  c #644573",
"q  c #6C4472",
"w  c #644A79",
"e  c #724272",
"r  c #784A75",
"t  c #64547D",
"y  c #645A7E",
"u  c #6B5C7C",
"i  c #6C5A77",
"p  c #795574",
"a  c #745D74",
"s  c #7A5B76",
"d  c #745C7A",
"f  c #7A5C7A",
"g  c #775578",
"h  c #7B646F",
"j  c #6C6275",
"k  c #64647E",
"l  c #6D647D",
"z  c #6E697D",
"x  c #666C7F",
"c  c #756375",
"v  c #7B6475",
"b  c #756975",
"n  c #7A6876",
"m  c #75667B",
"M  c #7B657A",
"N  c #73697B",
"B  c #7B697C",
"V  c #5F687D",
"C  c #9D565C",
"Z  c #9D5A5D",
"A  c #975C5C",
"S  c #8E4E5E",
"D  c #A4565C",
"F  c #A9565C",
"G  c #A3595D",
"H  c #A9585D",
"J  c #A35656",
"K  c #8D4C63",
"L  c #894D68",
"P  c #924D64",
"I  c #914D69",
"U  c #8D5E66",
"Y  c #8C5E6B",
"T  c #87506A",
"R  c #945C65",
"E  c #9C5B63",
"W  c #935D6A",
"Q  c #995766",
"!  c #8C5E72",
"~  c #835D77",
"^  c #915D72",
"/  c #A55661",
"(  c #AA5662",
")  c #A45A62",
"_  c #A95A62",
"`  c #85626C",
"'  c #8C616C",
"]  c #896165",
"[  c #92606B",
"{  c #98606A",
"}  c #826374",
"|  c #8B6173",
" . c #82647A",
".. c #826876",
"X. c #906274",
"o. c #997F7E",
"O. c #3D3A81",
"+. c #3C2E81",
"@. c #413B85",
"#. c #3E4583",
"$. c #3D4B83",
"%. c #3F4A89",
"&. c #3F5285",
"*. c #3E528A",
"=. c #424583",
"-. c #434D84",
";. c #434E89",
":. c #484A88",
">. c #594B83",
",. c #435185",
"<. c #44518A",
"1. c #49518B",
"2. c #4B5893",
"3. c #54568E",
"4. c #645B82",
"5. c #695C81",
"6. c #665B88",
"7. c #675282",
"8. c #446C8E",
"9. c #4B6C8E",
"0. c #47638E",
"q. c #5D6C8C",
"w. c #586888",
"e. c #4C738E",
"r. c #53728E",
"t. c #5B7087",
"y. c #4C6692",
"u. c #466D93",
"i. c #4C6B93",
"p. c #4C6897",
"a. c #516A93",
"s. c #556893",
"d. c #457091",
"f. c #4C7494",
"g. c #4D749A",
"h. c #47769A",
"j. c #537393",
"k. c #52739A",
"l. c #5F7190",
"z. c #646282",
"x. c #646C83",
"c. c #6A6A82",
"v. c #626D8B",
"b. c #686587",
"n. c #7B6581",
"m. c #726982",
"M. c #766782",
"N. c #607088",
"B. c #646B94",
"V. c #656894",
"C. c #6E7F9D",
"Z. c #5071A0",
"A. c #816784",
"S. c #8A788C",
"D. c #957D84",
"F. c #9B7E84",
"G. c #9A7D8A",
"H. c #8A7999",
"J. c #91789A",
"K. c #927DA1",
"L. c #A27E8B",
"P. c #6C8A9E",
"I. c #69849C",
"U. c #738B9D",
"Y. c #75839B",
"T. c #70909F",
"R. c #6D8CA2",
"E. c #6F8DAA",
"W. c #728DA3",
"Q. c #7284A1",
"!. c #7090A3",
"~. c #88828E",
"^. c #9C8087",
"/. c #9B818A",
"(. c #948289",
"). c #878696",
"_. c #92829B",
"`. c #A18389",
"'. c #BD938D",
"]. c #BB968E",
"[. c #AE8998",
"{. c #AD9A9C",
"}. c #BD9592",
"|. c #B79998",
" X c #B48C96",
".X c #BFA89E",
"XX c #968AA9",
"oX c #9594AC",
"OX c #9B95AC",
"+X c #979BA8",
"@X c #9A95B2",
"#X c #9C99B2",
"$X c #8D9BA4",
"%X c #A69CA6",
"&X c #B59DA7",
"*X c #A69CB6",
"=X c #95A2AB",
"-X c #9BA2AC",
";X c #99A1A6",
":X c #9CA8B4",
">X c #9EB4BA",
",X c #9CB4B7",
"<X c #8EA3AD",
"1X c #A2A3AD",
"2X c #BCADAA",
"3X c #B8A5AA",
"4X c #B9B2AC",
"5X c #A3ABB8",
"6X c #A4B3B6",
"7X c #A3B5BB",
"8X c #A9B5BC",
"9X c #A2B9BC",
"0X c #AABABC",
"qX c #B6B2B3",
"wX c #BAB7B7",
"eX c #BAAAB2",
"rX c #C3938E",
"tX c #C39592",
"yX c #C59797",
"uX c #C6A69D",
"iX c #CAA69D",
"pX c #CAA99F",
"aX c #C4A89C",
"sX c #CAA6A2",
"dX c #C5ABA3",
"fX c #CBABA3",
"gX c #CDADA9",
"hX c #C3ABA9",
"jX c #D1ABA6",
"kX c #C9B0A9",
"lX c #C2B8B6",
"zX c #D3B0A9",
"xX c #A3B6C2",
"cX c #A5B9C2",
"vX c #A9BAC3",
"bX c #C3CECA",
"nX c #C0CDC7",
"mX c #C8D2CA",
"MX c #D3D1CB",
"NX c #E5D2C6",
"BX c #EDE6D5",
"VX c #F2E7D8",
"CX c #F7FAE5",
/* pixels */
"G D / D R v M q 5 | D G _ P = d B c n N c F.fXfXtXG G E } m R / G W m.v E D G tXpXkX^.c b c b B d % S _ D Z ' 5 q M M E D G D _ ",
"G D G H A v m 5 5 | D G H P - s N c c B a F.gXdX].J H E v m R G J W N } G G G tXpXdX(.c B c c b f % K _ D ) Y 5 q M c E D D D G ",
"D D G D Q v m 5 q ~ D G ( K - f N M m B c /.gXpX}.D D E v M R / G W z v G D C yXsXgXD.c m b c N a % P / D G ' 5 e B m E D G G _ ",
"D D D F E v n.5 5 ! F J H P % f N v M B a ^.fXpXrXJ H Z ..c R H J W N v E F D tXaXdXD.c M v n b s & I _ J G ' = = M v E D D D ) ",
"W Q Q Q | z m.w 0 M R E E T # u c.c.x c.l ).hX2X|.R Q U N c.` W Q ~ x.z Q Q U |.hX4X~.l m.x x x 5.@ T W Q W  .< 0 c.c.Y Q Q R E ",
" .M v } z r.j.-.-.N.h v M i #.y.f.f.r.f.9.U.vX8X;Xa v N r.f.z v v c.g.r.M v m 1X6X9XU.r.j.r.j.f.s.=.u M v v x.,.:.r.e.N v v v B ",
"B M M M c.j.k.1.1.B.M M A.5.=.p.k.k.k.k.u.W.vXvX1Xv } N s.k.b.n.v c.g.k.M M m 5X7XxXW.g.k.k.f.g.p.=.5.A.v M v.;.2.k.k.m.n.M M M ",
"7 8 7 3 6 2 :.X X >.3 7 7 + . :.,.,.-.,.2 B.#XOX_.3 8 4 1.,.< 7 8 < ,.,.7 7 3 _.OX#XV.,.1.,.2 ,., . @ 7 3 7 < X X ;.,.q 7 7 7 e ",
"e 5 5 7 6 ,.1.X X >.3 3 5 @ . =.,.,.,.*.$.B.*XOXJ.= 7 6 2 &.< 5 3 < *.,.5 5 5 J.oX+Xl.$.,.-.&.,.%.. # e 3 6 < X +.<.,.0 5 5 5 7 ",
"' ' ' X.v x.B.>.1 m.X.' X.s # b.N.v.v.l.q.).wXqX1XY ^ } v.v.M ! W M l.x.! ! } 3XqXwX).w.B.v.x.l.b.# g X.Y } m.>.>.B.v. .X.! Y | ",
"_ / / / R v A.; 5 ' F J F K * n.m M M n.l /.jXhXtXC G E  .M W ( F R m M / / E yXsXgXG.d M M M B g % I ( H / ! = e  .v ) / D / _ ",
") E Z J R v M 5 4 ` J A D L * d N N N N j (.gXaX'.D D A v j ] Z J ] z b Z E A }.dXfXD.j b b b b a - K G D E ! 4 q B m R J Z Z Z ",
"H H _ H R ..A.; 7 ' ( D ( I ; f M M M B c L.zXsX].D J Z ~ v R _ H W m  ._ D J yXiXfX/.M M M M ..f ; P H H D [ 5 e  .M E H G H _ ",
"I K K P T y 6.# # p P S P ; $ t 4.4.4.4.1 S.eX&X[.P P T u 4.9 I P p 4.y I K L [.3X&XM.1 4.5.4.4.>.$ 8 I P L p @ # u y L K P P I ",
"= = % ; * =.=.O . @.% - ; +   O.-.=.-.$.> s.OXoXH.- - * =.=.# = ; # %., * - - K.oX@X3.#.%.=.=.$.@.  + ; % - # . X @.=.* = - - ; ",
"s s s s 5.s.p.=.=.V.~ p ~ t @.2.i.p.p.a.2.Q.8X:X+Xa f d s.y.z.a p l p.a.a s s %X5X5XQ.y.p.y.i.i.3.@.w A.p i V.=.:.s.y.M a s a s ",
"B n b v c.f.k.,.*.l.v n  .y #.i.f.f.f.f.e.W.0X9X-Xv n z j.f.x.B n x.h.e.B v n 1X>X9XT.d.h.f.f.f.p.#.y B v N v.&.<.k.f.z b b b n ",
"B v v v c.e.j.,.*.q.v b B y #.i.f.f.f.f.9.R.0X9X+Xc v N j.f.x.M v x.f.r.m v b -X9X9XR.8.f.f.e.f.y.#.4. .v m x.&.,.f.f.z v c c B ",
"v M v v c.j.j.,.$.l.v b v y #.y.f.f.j.f.d.!.0X7X=Xc v b j.f.c.M v x g.r.v v b -X9X0XU.9.f.j.f.f.y.> 4.B v c v.&.<.f.f.N v m v n ",
"B B m M c.j.k.,.;.v.M b ..6.%.p.h.g.g.f.d.E.9X9X=Xb B z k.g.x.M B x.h.f.m B b :X9X9XR.d.h.g.g.g.p.=.4.n.m B v.*.1.g.f.m.M m B B ",
"c a c a c.s.a.> $.w.s c c >.O.0.d.9.u.9.8.R.>X>X+Xa c j 9.i.k c s k u.9.c c j ;X,X>XI.8.d.8.e.d.0.o t f a c w.#.;.9.u.z.c a a c ",
"`.F.F.L.~.W.W.B.B.).L.o.`.S.V.Q.!.W.W.R.I.:XmXbXwXF.F.(.W.W.).G.`.~.T.T.L.F.o.wXbXmX=XP.R.W.R.T.Y.b.S.G.F./.).B.V.W.W.G.F.`.`.G.",
"fXfXfXsXhX8XvX*X@XqXfXpXjX&XoX5X7XcXxX7XxXmXCXCXBXsXsXdX8XxX4XfXjXqXcX7XsXsXhXVXCXCXbX7X9X7X9X>X5X@X3XjXpXfXqX@X@XvX>XhXjXfXfXfX",
"sXiXuXuX2X6X6XoXoXqXsXuXiX&XXX:X>X>XxX>X,XbXCXCXBXiXiX2X6X6X2XuXiX2X>X7XdXuXaXVXCXCXnX,X>X7X>X>X:XXX&XsXiXdXqXOX@X6X6XdXuXaXiXsX",
"'.'.'.'.|.+X+X).H.{.}.].tX[.H.XX=X$X=X=X$XwXVXBXNX'.rX].+X+X|.'.'. X+X;X}.'.'.NXBXBXwX$X;X+X+X=XXXS.[.tXrX}.%XH.K.+X+X|.'.'.'.'.",
"D C J J Q v M & 5 Y C C G K - i b c a b c G.fXsX'.C C A v c U D J U m a E J C }.aXpX(.j c b m c i % S G J A U = = m c E J C J G ",
"G D / D R M M 7 5 W / E H P = f M m v M j /.jXjXtXG F E  .M R D D R N c / D C tXpXkXF.c M M v n s % K _ D G [ 5 e M M E G G D / ",
"E E A E U b m.5 4 ~ Q A Z T * i z z N m.j (.gXdX|.C C R m z U E Z ' m.b Q E A |.dXhX(.j z N z z i * T E Z R } 4 0 m.N W Z Z E E ",
"..v v ..N r.k.-.,.v.~ v } t =.s.r.j.j.j.9.U.0X6X+Xv } m q.i.z  .} x.a.t.n ..v %X0X0XP.9.j.r.r.j.s., u  .} c c.-.1.j.a.N ..v v  .",
"M m m v l e.k.<.,.v.M b v 4.=.p.f.f.f.g.d.U.cX7X;Xc M z j.f.x.m v x.g.i.N c m 1X>X>XP.d.f.f.f.f.y.> 4.M b N v.*.;.f.f.m.M m c B ",
"R R U R ` z x.< < M W R Q p @ 4.x.x.z x.V ~.lX2X|.U R U z x.` W R v x.z Y R U &X4X4X~.k x.x c.x z.@ 9 W R U M < w c.c.Y R U R [ ",
"_ / G / R v n.; 5 ! ( / _ I % f B M M n.c G.jXsXtXD D Q v M W / F ' n.v / H D yXsXgXD.d m M M M f - I _ D ) ! q ; M M Q D G G _ ",
"H D D F Z v M 3 5 ! F D F S * g n v M m a `.jXsXrXJ D A v M R D D R N v G D Z tXaXfXF.c v n v b s : S D C Z U 5 7  .c E D D D G ",
"' U U U ` x B.< < m R U W 9 # w.x.t.x.x.V ).qX2X{.U W U z b.} W ] v t.x U U ' {.4X4XY.x t.x.N.V z.< 9 ' U Y c < < x.x.} U U ] [ ",
"M M m M c.g.Z.1.&.l.v M A.7.%.p.g.g.g.g.u.W.vXxX#Xf  .z i.h.q.M M b.h.j.M.M N :XxXcXR.u.g.k.g.g.y., 4.n.c M B.<.<.k.g.m.M M m M ",
"}  .~ } N r.j.-.-.v.v v ~ u # s.j.r.r.j.r.Y.0X6X;Xv v b r.k.z v } N g.q.v } c %X8X0XY.9.r.r.r.j.s., y  .v v x.-.1.k.r.M v } v M ",
"/ / E G Q B m.5 5  ./ Z / L * d N N m B c F.gXhX}.C Z Q v M W / / Y N c E / A yXdXgXD.c B M N N d - I ) G E ' 4 q B m Q / ) E ) ",
"G G D D Q v M 5 5 | / Z H K - s m v M m a ^.fXfXtXD G Z } c W / D U M v / D Z tXiXfXD.c m M M n p % P G D Z [ 5 e M M E D G D G ",
"Z Z C Z W c M 3 5 } ) A G L * i z N b N j (.gXpX'.C Z A v N ] C C ] m c E G A }.dXkX(.j N b N z a % K E Z A ` 4 q m b R Z C Z Z ",
"tXtXtXrX|.1X1X_.K.&XtX].tX[.J.OX=X+X-X-X=XlXVXVXNXrXyX|.1X-X|.tXrX{.:X-X}.tX}.NXBXBXwX+X-X+X-X-XOXJ.[.tXrXtX&XH.K.1X-X}.rXtXtXtX",
"iXdXiXiX2X6X7XoXoXqXsX.XuX&XXX:X>X>X7X>X,XbXCXCXBXuXiX.X6X>X3XpXiX4X>X,XdXiX.XVXCXCXnX,X>X7X>X>X:XXX&XsXuXuXqXoX@X6X>XdXuXaXsXdX",
"fXpXdXpX2X7X7XoXOXqXsXdXfX&XoX5X>X9X7X9X:XbXCXCXBXsXfXaX6X7X2XfXfX4XxX6XdXsXaXBXCXCXnX,X7X7X>X9X5XXX3XfXiXdXqX@X@X7X>XhXiXsXsXpX",
"D.D.D.F.S.U.U.v.q.Y.G.D.F.A.3.I.P.P.P.R.I.<XbXbXwXD.F.D.Y.R.~.D.o.~.R.P.D.G.(.wXbXnX<XI.P.U.P.T.C.4.A./.o.D.~.s.V.R.R.D.D.D.D.^.",
"c a a s z.9.i.$.#.q.d j v t %.0.d.d.8.d.8.I.7X>X$Xa c j i.i.V a c w.u.9.c a c +X>X,XI.0.d.8.u.d.0.o t m a j q.$.=.i.u.z a c c c ",
"B m m M c.j.k.,.,.v.n.B M 4.-.i.g.f.f.g.i.U.vX7X+Xm M N k.g.c.M v x.g.f.m M N 1X7X>XR.d.f.k.f.f.p.> 4.B v B v.$.;.k.k.c.M M M B ",
"v M v M m.j.k.,.;.v.M m  .t #.i.f.f.j.f.d.W.vX7X-Xs M N l.i.c.c M x.g.r.M M b 1X9XcXP.u.f.j.f.f.y., 5.M v c v.$.1.j.e.m.v M v M ",
"M M M v z r.f.,.,.l.v N M y > i.f.f.f.f.d.P.vXxX-Xc M N j.d.x.M c x.h.j.m M j -X9XcXW.u.f.f.f.e.y.#.4.M v N v.&.-.f.e.N v M m M ",
"N M N n z r.g.,.,.l.n n  .4.=.e.h.f.f.f.d.R.vX9X;Xb B z j.f.x M n c.h.r.B m N :X9X9XT.d.f.f.f.h.i.=.4.B v N N.*.,.j.f.c.v N v B ",
"s s s a l s.p.:.@.V.p a ~ w +.y.i.p.y.i.0.Q.xX5XOXp p d s.0.l f s 5.u.s.d s c #X5XxXY.0.i.s.p.p.2.O.w f a a b.#.=.p.y.5.s f s f ",
"= & & & * , =..   < % % ; +   # =.-., =.> b.@XXXJ.: ; * , #.@ = & @ $., & & & J.OX@X6.> $.> #.-.O.  + ; : & # O X =.-.= & % & ; ",
"I P P P T u 5.@ # n.I K I e $ >.4.4.y 4.1 S.eX3X[.K P L u 4.9 P P 9 4.u K I K  X&XhXS.>.4.y 4.z.7.$ L I S L s @ # 6.4.T K K P K ",
"G ( ( H W B  .7 q | ( / _ I = d B B B m.c /.jXgX}.G _ E  .M [ _ _ W m.B ) _ ) yXsXgX/.m B M M B d = I ) H ) | q ; A.M Q G ) _ _ ",
"H D D F A v v 3 5 U F J F P - p n b v v c ^.fXaX'.D F Z h v R D F R c h D D C tXsXfXD.c c v v b g % S G J J Y & 7 v v E D J G H ",
") G Z G R b N 6 0 } / Z H K * c N N b N c /.kXfXtXC G R c N U E J ' z b E G A tXsXhXD.j B N N z d * L E Z E ' 4 q N b R G E Z Z ",
"' ' Y [ } x.v.< < m.^ ' W i # v.N.v.N.t.w.).wX4X{.U W } c.q.v ^ Y b q.x.| ' ' {.qXwX).w.N.v.N.N.6.# g ! ' | m 2 < v.N.} ' ' ' | ",
"5 5 5 5 < ;.;.X . >.5 3 7 $ . %.&.,.<.&.> B.#XOX_.4 5 4 -.,.< 5 3 < ;.-.6 5 3 XXoXoXl.> <.,.&.,.#.. # q 3 5 < X X ;.&.6 3 7 3 7 ",
"e 7 7 ; w 1.3.X +.>.e 7 e # X :.<.1.1.<.$.B.*X@XXX7 e 0 1.;.w e 8 < ;.1.5 7 e XX#X#XB.;.1.1.<.<.:.. # r 7 e >.X +.1.<.0 7 7 7 e ",
"..M M ..c.j.k.,.<.q.v v ..5.@.s.j.f.k.f.f.E.0X9X+Xv v N l.g.x.M  .x.k.r.B M c 1X9X0XW.u.g.j.e.k.s.=.6. .v B v.&.1.k.f.N  .M M ..",
"B n c v x.f.j.,.,.v.M b v 4.=.y.e.9.f.f.e.R.0X9X;Xb c N j.d.x.M v x.f.r.b v b 1X>X9XP.8.g.i.e.f.p.@.5.M v B x.&.<.f.f.N v n v B ",
"E E E E Y N m.0 0  .E E E T * u c.m.N z l (.kXhX|.E ) W m m.Y E E Y x.m R E R yXhXhX(.k N N z c.5.* T E E R } 0 0 B z W E E E R ",
"H D D F R h M 7 5 | H J ( K % s n c v B c /.fXpX'.J / C ~ M R D J R N } G H C tXpXpX^.a M v c v f % P ( J H ' 5 e v n E J G Z G ",
"G D D D E n M 5 5 | G G ( K - f N M N B c /.kXfXrXJ D E c M W G G R z v E D Z tXpXkXD.b N M N N n.% I / J { ' 4 q B b Z G G G ) ",
"G G D D R v n.5 5 ! D G / K - a N m M m a o.gXdXtXC D A v m U G G W z v G G C tXaXfXD.c m v m N d - K _ J Z ' 5 5 M b { G ) Z G ",
"_ _ _ _ { n M.e q X._ ) _ I ; v B B B B b `.zXfX'._ _ )  .B [ _ _ [ m...) ) ) yXgXgXD.m B B B n.f = W _ _ E | q r B ..{ ) ) ) ) "
};
