/* XPM */
static char *_c59956902ed4a3ed817b8cbe6a802b2Wrd7iXG8Wy1PF6lu[] = {
/* columns rows colors chars-per-pixel */
"64 64 256 2 ",
"   c black",
".  c #010101",
"X  c #020202",
"o  c gray1",
"O  c #040404",
"+  c gray2",
"@  c #060606",
"#  c #070707",
"$  c gray3",
"%  c #090909",
"&  c gray4",
"*  c #0B0B0B",
"=  c #0C0C0C",
"-  c gray5",
";  c #0E0E0E",
":  c gray6",
">  c #101010",
",  c #111111",
"<  c gray7",
"1  c #131313",
"2  c gray8",
"3  c #151515",
"4  c #161616",
"5  c gray9",
"6  c #181818",
"7  c #191919",
"8  c gray10",
"9  c #1B1B1B",
"0  c gray11",
"q  c #1D1D1D",
"w  c #1E1E1E",
"e  c gray12",
"r  c #202020",
"t  c gray13",
"y  c #222222",
"u  c #232323",
"i  c gray14",
"p  c #252525",
"a  c gray15",
"s  c #272727",
"d  c #282828",
"f  c gray16",
"g  c #2A2A2A",
"h  c gray17",
"j  c #2C2C2C",
"k  c #2D2D2D",
"l  c gray18",
"z  c #2F2F2F",
"x  c gray19",
"c  c #313131",
"v  c #323232",
"b  c gray20",
"n  c #343434",
"m  c #353535",
"M  c gray21",
"N  c #373737",
"B  c gray22",
"V  c #393939",
"C  c #3A3A3A",
"Z  c gray23",
"A  c #3C3C3C",
"S  c gray24",
"D  c #3E3E3E",
"F  c #3F3F3F",
"G  c gray25",
"H  c #414141",
"J  c gray26",
"K  c #434343",
"L  c #444444",
"P  c gray27",
"I  c #464646",
"U  c gray28",
"Y  c #484848",
"T  c #494949",
"R  c gray29",
"E  c #4B4B4B",
"W  c #4C4C4C",
"Q  c gray30",
"!  c #4E4E4E",
"~  c gray31",
"^  c #505050",
"/  c #515151",
"(  c gray32",
")  c #535353",
"_  c gray33",
"`  c #555555",
"'  c #565656",
"]  c gray34",
"[  c #585858",
"{  c gray35",
"}  c #5A5A5A",
"|  c #5B5B5B",
" . c gray36",
".. c #5D5D5D",
"X. c gray37",
"o. c #5F5F5F",
"O. c #606060",
"+. c gray38",
"@. c #626262",
"#. c gray39",
"$. c #646464",
"%. c #656565",
"&. c gray40",
"*. c #676767",
"=. c #686868",
"-. c DimGray",
";. c #6A6A6A",
":. c gray42",
">. c #6C6C6C",
",. c #6D6D6D",
"<. c gray43",
"1. c #6F6F6F",
"2. c gray44",
"3. c #717171",
"4. c #727272",
"5. c gray45",
"6. c #747474",
"7. c gray46",
"8. c #767676",
"9. c #777777",
"0. c gray47",
"q. c #797979",
"w. c gray48",
"e. c #7B7B7B",
"r. c #7C7C7C",
"t. c gray49",
"y. c #7E7E7E",
"u. c gray50",
"i. c #808080",
"p. c #818181",
"a. c gray51",
"s. c #838383",
"d. c #848484",
"f. c gray52",
"g. c #868686",
"h. c gray53",
"j. c #888888",
"k. c #898989",
"l. c gray54",
"z. c #8B8B8B",
"x. c gray55",
"c. c #8D8D8D",
"v. c #8E8E8E",
"b. c gray56",
"n. c #909090",
"m. c gray57",
"M. c #929292",
"N. c #939393",
"B. c gray58",
"V. c #959595",
"C. c gray59",
"Z. c #979797",
"A. c #989898",
"S. c gray60",
"D. c #9A9A9A",
"F. c #9B9B9B",
"G. c gray61",
"H. c #9D9D9D",
"J. c gray62",
"K. c #9F9F9F",
"L. c #A0A0A0",
"P. c gray63",
"I. c #A2A2A2",
"U. c gray64",
"Y. c #A4A4A4",
"T. c #A5A5A5",
"R. c gray65",
"E. c #A7A7A7",
"W. c gray66",
"Q. c #A9A9A9",
"!. c #AAAAAA",
"~. c gray67",
"^. c #ACACAC",
"/. c gray68",
"(. c #AEAEAE",
"). c #AFAFAF",
"_. c gray69",
"`. c #B1B1B1",
"'. c #B2B2B2",
"]. c gray70",
"[. c #B4B4B4",
"{. c gray71",
"}. c #B6B6B6",
"|. c #B7B7B7",
" X c gray72",
".X c #B9B9B9",
"XX c gray73",
"oX c #BBBBBB",
"OX c #BCBCBC",
"+X c gray74",
"@X c gray",
"#X c gray75",
"$X c #C0C0C0",
"%X c #C1C1C1",
"&X c gray76",
"*X c #C3C3C3",
"=X c gray77",
"-X c #C5C5C5",
";X c #C6C6C6",
":X c gray78",
">X c #C8C8C8",
",X c gray79",
"<X c #CACACA",
"1X c #CBCBCB",
"2X c gray80",
"3X c #CDCDCD",
"4X c #CECECE",
"5X c gray81",
"6X c #D0D0D0",
"7X c gray82",
"8X c #D2D2D2",
"9X c LightGray",
"0X c gray83",
"qX c #D5D5D5",
"wX c gray84",
"eX c #D7D7D7",
"rX c #D8D8D8",
"tX c gray85",
"yX c #DADADA",
"uX c gray86",
"iX c gainsboro",
"pX c #DDDDDD",
"aX c gray87",
"sX c #DFDFDF",
"dX c gray88",
"fX c #E1E1E1",
"gX c #E2E2E2",
"hX c gray89",
"jX c #E4E4E4",
"kX c gray90",
"lX c #E6E6E6",
"zX c #E7E7E7",
"xX c gray91",
"cX c #E9E9E9",
"vX c #EAEAEA",
"bX c gray92",
"nX c #ECECEC",
"mX c gray93",
"MX c #EEEEEE",
"NX c #EFEFEF",
"BX c gray94",
"VX c #F1F1F1",
"CX c gray95",
"ZX c #F3F3F3",
"AX c #F4F4F4",
"SX c gray96",
"DX c #F6F6F6",
"FX c gray97",
"GX c #F8F8F8",
"HX c #F9F9F9",
"JX c gray98",
"KX c #FBFBFB",
"LX c gray99",
"PX c #FDFDFD",
"IX c #FEFEFE",
"UX c white",
/* pixels */
"oX&X X}.{.+X+X[.oX$XXX[.|.+X}.|.}.oX X.X X[.@X.X'..XXXoX}.}.oX{.XX#X|.{.OXXX#X[.+X$X.X`.%X{.#X'.XX#X#X{..X{. X|.OX+X[.}.OXOX@X{.",
" XOX).{.+XOXXXOXoX+X_.[.#X XoX|.XX|.[.).].#XOX$X|.]. XXX X].+X|..X#X].|.+XoX.XOX+XOX'.).%XXX@X{.+X+XXX`.XX].$X.X XOX_. X+X@X X X",
" X{.OX%X=X`.}.+X|.[.{.OX$X|. X.X[.`.$X].[.$X}.|.]. X].&X@X|. XOX X{.XX#X=X_. X#X{.|.}..X-X|..X+X+X[.oXXX+X|.}.XX{.[.OX&X=X'. XoX",
" X{.#X$XoX`.#X#X.X@X.XOX^.oX.X}.{..X XoX{.[. X}.OX@X`.@X{.|..X#XoX[.#X$X.X].+X$X.XOX.XOX.X}.{.OX[.|.}.'..X[.[..X#X$X X}.#X].oX$X",
"}.|.=XXX[..X@X X|. X{. X`.XXoX|.[.OXXXOX}.|.oX X[.XXXX#X|. XoX$X|.}.-X.X}. X+X|.oX+X+X$X$X.X.X].].=X].{. XOXXX.X@X{.XX}.oX}.XX$X",
"|.oX#X|.oX X$X[.{.oX@X.XXX$X.XoX{. XoX@X)..X.X+X}. XXX%X}.|.XXXX XoX$X X#XoX+X(.+XOXoX+X@X.X|.XX|.&X|.|.{.+X+XXX@X|.OX X|.oX{. X",
"[..X}..X$X].*XXX}. X#X'.|.|.|.@X X}.XX[..X].@X%X{.}.OX[..X'.+X+X|.oX XQ.&X{.oXoX#XOX|.[.oX@X_.%X XOX$X}.`.@X X*X+X#X].].@X].OXoX",
"].{.[.{.=XOXOX'..X'.OX{.+X+XXXXX.X'.OX}.oXXX%XoX|.[..X{..XoX&X%XoX/.}.[.;X}.|.@X[.+XXX{.OX=X|.*XoXXX}..X}.=XXXOX$XXX X X#X$X}.XX",
"{..XOX.X;XoX).}.OX.XoX$X.XXX{.OX[.XX X|.oX{. X+X[..X.XoXXX}.XXXXoXXX[.$X*X'. X{.+X.XOX#X#XOX{.+XXX@X`.XX+XoX|.}.#X#X%X{..X}.).'.",
"@XXXoX.X.X'.+XXX X|.|..XXX X{..X[.#X[.]..X.X XOX'.#X[.}.|.|. XoX@XXXoX X[.'.*X{.OX.X X|.}.oX).#XoX*X`.[.XX{..X|.-X@X+X}.|.).+X).",
"#X}.+X.X.X}.@X`.`.$X}.OX@X.X X}.{.=X|. XXX+X$X.X{.=X|..X.X+X%XoX%X].-X X|. X%X].|.oXOX.X.X X.XXX$X@X]..X.XOX.X}.-X X#XXX[.#X|.Q.",
"|.XX@X'.oX{.).OX_.-XOXXX.XXX].#X|.$XXX X[..X.X$X{.+X+X'.[.XX|.#XoX#X$X`. X}.@X}..X+XXX[.OX}.$XoX}.XX X.XOX[..X+X$XoX+X[.].$X).XX",
"]..X}.{.+X.XXX+XOX#X}..X|.&X).:XoXoXOX}.{.&XoX=XoXOXOX}.}.%XoX@X@XoXoX).=X}.+XOX+X|.#X[.XX|.+X X|. X XXX|.}.XX@XXX{.OX}.'.$X[.OX",
"OX{..X@X#X.X+X`.$XoX.XoXoX-XXXoX.XXX).XX@X@X.X.X.XOX(.oXOX#X|.}.%X}.#X.X%XXX].[.OX.X+X{.&X[. X@X X(.XX&XOX{.`..X&X{.#XXXXX'.|..X",
".X.X.X{.$X|.].$X$XOX|.$XoXoX/.#XOX#X].}.oX`.XX]. X$X'.].OX{. X}.&X.X|.@XoXoXXX}.XX&X].OX$X}.OX.XOX X#XOXXX{.{.@X=X.X|.`.{.'.XXOX",
"XXoX X XOX|.+X+XoX+X.X#XoX}..XoXOX%X]. X.X.X X}.&X#X`. X.XXXXX.X;X].+X}.XXoX@X.X{.+X{.XX+X%X+X[. X X@X`.XXoX}.].%X X}. X#X.XoX_.",
"}.|.OX@X|..X*X{.XX@XOX%XoX X@XoX.X+X}.oXXX}.|..X+XoX.XoXoX}. X X%X.X#X{.$XXX#X_.|.oX+X[.&X{.#X].XXoX#X|..X}..X|.oX@X|.}.OXXXOX}.",
").OX+X^.*XXXOX#X}.|.+X|.}. X$X X XoX X.XXX{.|.#X XXX|. XXX[.XX#X}.}.OX X X[.oX].}.{.@X{.$XoX@X'.oX@XXX_..X'.#XoX}.oX'.XX@X@X@XOX",
"+X.X#X'.%X+X[.|.{._.&X'.*X}.|.#X|.).oX$X.X|.|.XX].(.XX*XoX}.}.oXoX'.-X].OX X'..X.X.X+XOX*X.X XXX+X}.XXXX+X.X XXX X}..X#X-X'.|.{.",
"OX'.$XOXOX XOX}.+X.X&X{.OX[.oXXXOX|.@X#XoX}.`.$X$X}.oX$XXX|._.$XOX.X#X{.OX[. XoXoX XXXXXoX/.XX X[.oX.XXX.X]..X$XXX|.+X%X X'.XX$X",
".XXXoX X X].@X].oX].OX'.|.@X%X[.XX{.@X`.oX}.|. XoX}.$X_. X|.XX|.OXOX+X@X.X{.#XoX X}.@X|.@X].%X(. XoXoX+X.X|.OX#X}.}.%XoX}. XOX{.",
"#X+XXXoXXX XOX[.XX}. X_.oXoXXX'.}.+X@X}.|..X}.{.OX{.#XoX.XXX$X(.#X+X@X+X.XoXoX.X.X X%XoXOX+X@X(.#XoX+X+X.XoXoXXX.X|.$X X@X@X+X_.",
"*X.X.X].+X}.XX$XXX}.'.^.&X{.|. X+X+X}.].@X}.+X@XOX X X^.$X X|.oX$XoX X].oXoX X}. X.X}.^.*X{. XoX@XOX}.'.OXoX.X|.|..X{./.*X|..X.X",
"}..X.X}.@X.X%X$XXX(.|.[.:X.X X#X{.XX.X|.OX.X$X%XoX`.[.'.;X|. X#X[.oX|.|.+X#X|.]..X`.{.].>X XXX+X].OX.X}.#X@X{.].oX_.{.].;X[. XOX",
"oX.X+X$X X`.XX|.OXOX[.#X&X`.oX'.XX XoX#X#X'.OXoX X{.].#X:X{.XX].XX.XXX%X X'. X_..XoX|.#X%X{.XX'.OX.XXXoXXX'..X_..X.X{.+X&XXX XXX",
"OXXX X.X+XXX|.OX+XXX+X.X X{.OX|.@X{.@X+X{.'.&X{.[.@X|.#X|.{.OX/.%XXX.X|.oX|.}.'.oXoXoX X X}.XX`.|.{.^.+XoX|..X{..X|.XXXX+XOXXXXX",
"&XOXoX.XXX@X#X X#X'.-X+XOX#X}. XoX$XXX'.].{.<X'.}.&X@X$X{.+X X.XXXXX%X XOX#X@X}.+X X+X|._.XX'.XX].#X|.&X|.#X}..X.XoX%XXX.X$X+X{.",
"}.OX+X`.}.oX|.%XOX+X$X X|.|.}.&X X+X$X!.&X.X$X#X|.].oX%X X@X}.#X.XOX|.[.+XOX$XoX XoX%X}.{.XX`.OXOX}. X.XXX@X X$X.X.X}.].+X#X@XXX",
"}.XXoX].`.#XoX$X.X+X&X}.oX@X}.*XXXoX$X|.&XoXXXXX+X.XOX=X X,XoXOX{.{.}.}.OXOX+X$X}.OX-X/.}.|.OX.XXXOX'..XXX;X+X.X}.{.|. X+XOXOX&X",
"%X X+X[.].#X#XOX|.*XXX.X$X}.{.+X%X XOX%XoX^.@X].%XOX'.>XOX@X@X|.}.@X X X#X*XoX+X#X.X=X_.+X%X{.oX@X+X_.@XoXoX+X.X{.$X|. X+X%X+X@X",
"%X XoX].OX XoX#X#XOXOX{..X].@X.X:X[.OXOX).|.-X.X*X|.oX.X{.XX}.XX|.@XoX|.OX+X|.XX.X%X#X{.OX#X{.XX}.@XXX.X}..X X.X[.#X.X.XoX#X XXX",
"|.].XX|.&XXX#X`.#X$X@X}.OX+X%X}.*XXX&X}.OXOX+X].+X X$X$X.XXX}.@X|.XXoXXX#X@X|.@X|.$X#X|.+X-X$XoX[.{.+XoX XXX}.#XXX|.+X+X+X+X[.$X",
".XoXXX%XOX].%X|.+X#XOXOX X@X+XXX%X}.|.$X}.].%X(.XX X X$X[.{. X*XOXXX&XoX[.].OX X X$X@XXX.X+XOX X[. X+XOX}.[. X&XoXXX&XOX[.{.+X X",
"}..X+X[.OXXXoX@X X.X X{.>XXX.X*X[.OX{.}.oX_.%X|.[.|.+X X`.OX@X%X].oX#X).XXXXOX$XoX@X.XXX).*XoX&X X].}.XX'.+X@X%X].oX@X_.@X.XXX=X",
"{. X#X{.*X`.'.+X|.'.@X&X1X{..X+X|..XoX{.&X X@X|.XX^.$X&X'.$X[. XoX|.$X X%X+X$X XoX}.=XoX[.=X.X.X{. X}.&X'.$X{.|.OX|.*X X#XOX@X X",
"|.{.#X@X).~.@X.XOXOX&XoX}.+X+X+X@X].$X$X X{.@X`.-X.X|.+X{.}. X XOX#X X+XXX[.%X}.[.}.@X}.{.#X{.@XoX@X'.@X}.[. X X.X$X.X#XoX[.@X|.",
"].@XOX{.}.{.%X).].=X.X+X+X+XoX}.@XoX%XoXXX.X#X`.*X{.@X.X{. X+X'..XOXoXoX+X).&X(.|.$XXX XoXoX+XOX[.oX+XoX{. XoX'.XX+XoX XXX].@X_.",
"OX#X.XOX{.%X_.'.+X|.&X#X=X|.|.@X+X%XoXOX@X#X|.(.=X@X=X+X_..X X[.@X|.#XXXoX@X+X/.%XXX@X+X|.@X+X+X{..XoX#X(.XX X[.@X X+XoX+X+X#X).",
",XOX(.#X].]._.XX.X+X.XoX$XQ.&X|.%XoXOX.XXX'.=X&X X.X+X'.OX'.+X#XXX.X X^.%X|.XXOX#XOXoX].|. X.XOX{.|.XX|..X[.OX+X.X|.|.^.%X|. X.X",
"/.@XoX.X X'.XX.X|.oX@X*X#X|.$X%XXXoX&X[.$X XXXoX X|.XX{. XXX%X$XXX).[.[.;X X|.@X[.XXoX{.+X@XXXoX|.`.oX]. XoX&X%XoX^.[.[.>X X|.%X",
").+X|. XoXXX}.).#X|.*X@X@X XOXOX$X#X@X X X}.|.`..X+XoXXX+X]..X.XOX.X{.$X%X[.XX].XX.XoX%XoX}.|.#X].XX.XXXoX X.XXXoX X}.@X&X{..X].",
".XXX+X X XXX}.}.;X X%X XXXOX+X.X*X X#X{.{.]..X).OX.X.X XXX'.oX{.OX X[.+X[.`.*X{.OX.X|.oXoX|.[..X_.$X_.}.XX.X|.XX+X.XOXXX[.`.&X{.",
"W.#X}.OXXX X].@XXXXX=X_.oX%X+X{.#X X=X{.|.@X|.(.OX}.OX|.OX}.#X[./.@X{.#XXX X*X[.|.@X'.+X#X+X X}.|.=X}.|. XoX#X X#X].=XXX{.}.%X}.",
"XX@X].@X/.).#X|.#X#XoX}.-X.XOXOX@X#X[.).[.&X/. X|. X$X].oX[._.@X'.-XoX.X|.XX`.OXOXOXOXoX[.OX].$X X#X@X|.].XX X=XXX$X@X_.oX X@X|.",
"+X X.X|.+X|.+X XOX.X#XoX+X+X%X@XOX(.XX^._.#X{.+X]. X|.[.OXoX.X+XOX@X X X.X*X_.;X XXX X X|.*X`.-X.XoXOX[.{.*X.X@X$XOXoX`.=X|.@XXX",
"XX X X|.@X{. XXX XoX=X#X@XoXoX.XXX!.$X{.|.'..X.XXX{. XoX%XoXXX'.%XOX.XOX|.&X.X@XXXOX_.+X.X*XXX+XoXoX).oX+X+XoX}.#X|.#X X$XXX].}.",
"[.|.}.XX[.{.%X`.*XoX+XOXoX_.@X}.@XOX|.|.[.'..X.XXXXXXX[.$X{.].+X+X#X'.$X.XoX/.@XOX%X`.$XXX X).+X+X*X[.[.OX'..X}.*XoX X@XoXoXoX.X",
"_.oX#X.X{.OXOX{.$X}.$XXXOXXX-X|.$X.XoX+X X|.#X)..XoX.X X@X|.#X+X.XoX.X#X+X X{.+X#X$X/.#XoX X}.oX#X%X'.|. X.X X}.:X].oX{.oXOX+X X",
"XX@XoX.X{..XXXoXOX{.*X XXX.XoX].%XoX;XXX{..X@X{.|..X+X#X X X%X[.XX+X@X&XXX|.#XXX.XoX{.$X.XoX@X.X.XOX}.XXoX|.}.XX%XXX+X}.+X.X%X[.",
"OXXX). X'.|.=XoX.X@XoX'.&X XoX.X#X@XoXW.%X$XoXoX`.+XoX/.#XOXXX@X X XoX}.{.|.$X X|.oXoX|.|.|.OX.X|..X.X X.X}. X&X|.}.OX X|.{.OX_.",
" X@X}.oXOX+X[.XX|.}.$X@X@XOX@X]..X%X@X~.OXOX|. XoX X$X[.&XOX{. X X`.&X'.*X|.|.@X|.`. X[.%X}.|.@X X(..X&XOX|.{.XXoX_.=X{.oX.X`. X",
"OXXX}.|.|.oX.XoX#X{.@XXX#X.X'..X@X#X.X|.|.}..X$X#X{.$XOX+X}.XX{.XX X*X{.oX{..X.XoX{.OX{.@X{..X}.+X}.oX#XXX|.'.+X#XXX.X{.#X`.|.OX",
"|.{.XXXX|.@X#X_.XX'.OX#X%X X[.#X$XoX+X X|.}.OX X@X.X+X X}.|.#X}.|.[.+X(. X#X$X{..X X=X(.|.$X#X]..X.X$X`.XX}.}. XOX].+XXX+X.XXX}.",
"OXOXOX.X}.{..X).OX.X+XoX X.X}.].XX.X#X.X}.{.#XOXoX{.+XXX+X X{._.{.XX@X).@X.X+X[.{.OX@X).+X.XoX]. XXX#X|..X.X|.}.OXXX@X{.#XoX@X'.",
".X*X]. X|.oX*X|.oX%XoX_.#X}.@X|.}.XX X/.|.XXOX$X}.@XoX[.#X}.|.}.[.$X.X'.%X X$X[.+X$X|.].$X X#X[.oX%XoX`. X'.#X}. X%X`.}.+XOX+X}.",
".X[. X].*X+X XoX@X}.%X|..X@X+XXX].`.#X]. X@XXX@X.X|.XXXX$X|.|.}.{..X+X[.;XXXXX.XOX}..X].*XOXXXoXOX[.XX|.+X XOX.X}.|..X+X-X]. X#X",
"XXoX XXX+X X{.}.XX+XXX{. X[.}.OX X XXXoX|.{.XX.X+X/.|.OX].XX)..X$X[.@XOXOX`.OXXXoX}.+XOX+X[..X.XOX.X|. XOX{.}.oX+X|.OX$X#X.X|.|.",
" X*X'.+XXX{.+X X{.*X`.+XoX).+X|.}.@X|.oXXX(.XX|.}.].oX@X{.OX X}.%X{.XX@X].OX+X_.+X}..X+XoXXX[.OXOX&X`.[. X[.oX.X=X}. X.XOXXXoX.X",
"{.@XoXoX}.oX#X{.}.OXXXXX{.|.XX'.oX[.@X`.).@X`.[.[.oXOX|.XX}. X}.@X].=X X].|.|.}.+X{.+X|.|..XXXoX#X+X{..XoX.X X|.;X].$X].oXoX@X}.",
"oX}..X}.{.|.#X)..X XoX].}.[.$X[.|.@X*X|.).*X{..X X X|.]. X].[.+XoXoXOX/.{.XX+X X#X.X.X(.}.}.@X XXXOX.X XOX}.}.+XOX.X+X X@X|.$X_.",
"}.|.%X'.[..X{.}. X{.#X[. X@X+X`.XX.X#X[.[.+XoX X@XXX%X XXX{..X$X X[.+X[.oXXX{.|..X XoX`. XXX@XoX X|. X X.X}.XX$X X].+X}..X|.[.].",
".X|.+X@X X|.`..XXX|.OX@X XXXXXXXoX{.OX|.+X.X|.oX%X].oX@X}. X`. X+X}.=X`.OX.X_.XX+X XOX%X=X}.{.+X.X).XX=XoX|.]..X@X].*X].oX X`.oX",
"XX X@X.XoX}.OX+X.X X+X.X|.]..XOXXX`.oXOX#X].|.{.XX|.oX|.+X}.{.@XoX X|.OX+X_.oXoX.X|.+XXX.X X+X}.OX|.#XoXXX|.}.$X+X X XoX@X[.XXoX",
" X+X*XXX|.OX+X]..XOX=X.X].@X|.|.{.}.+X}..X.X+XoX.X.X+X{.oX.X|.].OX].+X.X.X+X+X'. X@X=X_.XX#X@X]..X.X+X].XX.X{.].OX'.@X XXX+X+X'."
};
