/* XPM */
static char *_7d38947e32540aed4809b5d6157e58a3NuFOoba46kedGJm[] = {
/* columns rows colors chars-per-pixel */
"64 64 250 2 ",
"   c #351F1D",
".  c #2E1F1E",
"X  c #3B231D",
"o  c #34231E",
"O  c #2A221F",
"+  c #2D1E22",
"@  c #321E23",
"#  c #2D2123",
"$  c #2A2229",
"%  c #342323",
"&  c #3B2524",
"*  c #3C2925",
"=  c #35252A",
"-  c #36292B",
";  c #3B292A",
":  c #382627",
">  c #362A30",
",  c #47281E",
"<  c #542C1D",
"1  c #582C1C",
"2  c #54301F",
"3  c #7C3B1D",
"4  c #76371D",
"5  c #65361E",
"6  c #4C2C23",
"7  c #442825",
"8  c #532D24",
"9  c #5A2C23",
"0  c #542E29",
"q  c #542622",
"w  c #4C3127",
"e  c #533126",
"r  c #533129",
"t  c #583429",
"y  c #533D35",
"u  c #5C3E35",
"i  c #533E3A",
"p  c #5D3E3A",
"a  c #4E3D38",
"s  c #653523",
"d  c #6C3623",
"f  c #6D3925",
"g  c #683928",
"h  c #743B23",
"j  c #7B3D22",
"k  c #733D2A",
"l  c #783A25",
"z  c #603E36",
"x  c #602824",
"c  c #5C4236",
"v  c #56423C",
"b  c #5B433B",
"n  c #564438",
"m  c #4D4237",
"M  c #7C4125",
"N  c #76422C",
"B  c #7B432C",
"V  c #754024",
"C  c #614336",
"Z  c #62423A",
"A  c #6D493C",
"S  c #6C4837",
"D  c #744936",
"F  c #75463B",
"G  c #744B3C",
"H  c #794736",
"J  c #7C533C",
"K  c #513E42",
"L  c #5B4442",
"P  c #5C4C4B",
"I  c #584643",
"U  c #5E504B",
"Y  c #5A4D4E",
"T  c #654C44",
"R  c #6C4B42",
"E  c #624E4B",
"W  c #644744",
"Q  c #734C42",
"!  c #7B4D42",
"~  c #65514D",
"^  c #69524A",
"/  c #7C5344",
"(  c #73544C",
")  c #7C554A",
"_  c #7C5B4D",
"`  c #755547",
"'  c #675553",
"]  c #7C5D53",
"[  c #775A55",
"{  c #614E52",
"}  c #7B6054",
"|  c #7A665C",
" . c #7C6966",
".. c #7B7571",
"X. c #7A6F6F",
"o. c #863A1B",
"O. c #933F19",
"+. c #833E23",
"@. c #863E26",
"#. c #8B3E28",
"$. c #87411E",
"%. c #98431D",
"&. c #BC531B",
"*. c #834225",
"=. c #82432A",
"-. c #8B4728",
";. c #934524",
":. c #944924",
">. c #944A2B",
",. c #984727",
"<. c #874B36",
"1. c #86533D",
"2. c #9B5534",
"3. c #9B5935",
"4. c #95563B",
"5. c #9B5639",
"6. c #945B3C",
"7. c #9B5B3C",
"8. c #965735",
"9. c #954E2F",
"0. c #BB5A2B",
"q. c #B85729",
"w. c #A25935",
"e. c #A25C3C",
"r. c #A35637",
"t. c #AC582F",
"y. c #9B603C",
"u. c #B76031",
"i. c #C05728",
"p. c #C56B3C",
"a. c #C0511B",
"s. c #855C4C",
"d. c #875847",
"f. c #965C43",
"g. c #9B5D42",
"h. c #965E4A",
"j. c #835C53",
"k. c #A15D42",
"l. c #8B624E",
"z. c #99644B",
"x. c #856A5D",
"c. c #8A6A5D",
"v. c #896658",
"b. c #986956",
"n. c #9D725D",
"m. c #98745B",
"M. c #A3654B",
"N. c #A46A4C",
"B. c #A96748",
"V. c #B96C47",
"C. c #A36C53",
"Z. c #A56C57",
"A. c #A2715C",
"S. c #A97459",
"D. c #BA7D5E",
"F. c #BB714B",
"G. c #836C64",
"H. c #8B6C63",
"J. c #846D6A",
"K. c #876C68",
"L. c #926E63",
"P. c #84726C",
"I. c #88746A",
"U. c #947264",
"Y. c #9B7364",
"T. c #97776A",
"R. c #8B7A75",
"E. c #8C7C7B",
"W. c #867875",
"Q. c #947B74",
"!. c #987D77",
"~. c #836873",
"^. c #AB7A64",
"/. c #AB7B6A",
"(. c #A67B66",
"). c #B27B64",
"_. c #A67368",
"`. c #C36E45",
"'. c #C9754B",
"]. c #CA7954",
"[. c #D07144",
"{. c #C27E60",
"}. c #8C827B",
"|. c #94827C",
" X c #9C847B",
".X c #9A8579",
"XX c #9B826B",
"oX c #A7836D",
"OX c #BC8569",
"+X c #A2857B",
"@X c #AC8B7C",
"#X c #A88676",
"$X c #B38A75",
"%X c #B38B7B",
"&X c #B68875",
"*X c #CE845D",
"=X c #CC8C6C",
"-X c #C98867",
";X c #D28B69",
":X c #C88D73",
">X c #C4937C",
",X c #CB947B",
"<X c #CB9579",
"1X c #D5967B",
"2X c #CE916F",
"3X c #DCA17F",
"4X c #877E81",
"5X c #937E82",
"6X c #958483",
"7X c #988885",
"8X c #948986",
"9X c #A48B83",
"0X c #AB8C83",
"qX c #A58A85",
"wX c #B28C83",
"eX c #A5938B",
"rX c #AB948C",
"tX c #A89589",
"yX c #B4968A",
"uX c #AC9591",
"iX c #AD9A93",
"pX c #A49693",
"aX c #B39B94",
"sX c #B59994",
"dX c #A98E90",
"fX c #B9A49A",
"gX c #AEA39D",
"hX c #B69FA2",
"jX c #B9A8A4",
"kX c #B3A8A9",
"lX c #C69783",
"zX c #D39985",
"xX c #D9A688",
"cX c #C8A999",
"vX c #D3AA97",
"bX c #D3B29E",
"nX c #CDA48E",
"mX c #D2AEA3",
"MX c #C9B4AB",
"NX c #C9B7B5",
"BX c #D5B6A9",
"VX c #E4BFB2",
"CX c #E1A78C",
"ZX c #DCC4B6",
"AX c #DEC2AF",
"SX c #E2C4B8",
"DX c #E1C0AE",
"FX c #D8CAC6",
"GX c #CEC8C7",
"HX c #E6C4C0",
/* pixels */
"j.] ] | } _ J f f 2 [ jXFXZXnX'.0.-.6 & ; J.cX2X0.'./.{ % * : - - & 7 $ E oX'.q.;XcXG.; & 6 -.i.'.cXFXFXgX( < f f D } ] } ] ] ] ",
"] ] ] ] _ D D G < ) 9XP.aXvX&X,X5.M B 6 G.H.H ].xXB.l j.~ # - * : - @ ~ v.h N.xX{.=.H.X.< M M 6.zX:XvXcXW.9X_ < G G Q _ ] ] ] ] ",
"] ] j.] G D A b G.#X+XT.1.B.<X9XU./ *.OXoXM j b.0XH.@.3 c.E O X * $ P v.V l U.eXz.o.V oXOX*.d.W..XzXB.1.+X+X0XG.C G D Q ) j.] ] ",
"] ] _ G G G c G.aX9X%Xf.:.$.( 8XG.Q.lX-X0.o.s.^ o P.U.k *.d.^ $ % ^ s.M B m.P.. ^ l.o.0.;X>XXX..8X( @.;.4.#XeXiXP.C D D Q ] ] | ",
"} s.G G Q c  .iXpXrXZ.;.:.5 X ' R.NXSXV.&.].( $ ; 7 G.H.B o.b.Y P z.+.k T. .& 7 # ` '.&.V.VXNXE.' & g >.%.A.yXeXiXG.c G F J _ ] ",
"] G D A c K.iXeXtXn.g.7.5 w e X pXSX<X-X=XB.f w & & &  .T.M 4 OX$X3 l T.P.& = & 6 N N.=X;X,XSX0XX 8 6 d 7.7.n.wXuXiXJ.Z G G A _ ",
"G G Q u c.aXpXyXB.w.z.R c < < !.H.B.1XmXfX` M =.6 = = 7 W.| N.[.`.C.H.J.& % = q V M Q fXvX<XC.L.T.1 9 z A z.2.S.rXpXaXH.c G D G ",
"f G c G.rXrXtXA.w.7.A i v C n.^.<.o.&XaX4XQ.J M k 0 & & # eXxX0.q.CX0X. : & 8 k j d.R.6XfX&Xo.<./.Y.z L n S 7.3.A.wXrXrXG.Z F f ",
"d 8 K.rXeXyXC.3.g.A b v b +X$X:.%.b.R I 7XI.R.s.o.*.w . E h.OX:X-X-Xs.E $ 7 =.@.s.!.P.7X~ T Z.%.>.@X7Xc n b Q g.w.S.tXrXiXG.1 d ",
"< ) 0XtXtXA.7.7.S L b n .X%Xz.8.M./ 6 X [ E.W.|.J *.l ` l.4 N BXbX*.4 j.[ k #.<.E.|.E.' X , ) N.5.7.@X+Xp b v A e.3.A.sXtX0Xd.9 ",
"` .X+XoXC.7.z.D b p L .X&X7.4.(.x.6 t 0 X ~ }.}.I./ B.].$.l T.G.K.T.j *.].k.1.Q.E.7X' 7 e < 6 x.(.4.3.&X Xb c v D f.7.C./.9X X( ",
"aXG.oXg.,.7.S v K z  XwX7.w.(. .K b 0 8 w o ' 8X..sX;Xa.u.A.G.- * P.n.i.&.-XfXX.6X'   0 < t v m G.).2.g.wX9XC c L S 3.,.h.qXP.aX",
"FXsXf.;.>.s p L b .X%Xf.5.^.c.y v L W 0 < e X E jXmX=XV.;XOX< % : < -X-X`.-XmXkXP   8 9 e p L b c G.S.4.g.%X+Xc b u s >.;.<.cXFX",
"FXbXB.j s 8 0 c  X@Xh.2./.J.i Z c L v u 1 0 7 R &XlXlXVXlXh B 6 , *.+.>XVX>XzX%XT 6 9 9 v v b c b v G.).2.h.wX XZ w < s +.B.vXGX",
"nX=XzX_ o 0 1 T.%Xh.6.S.x.v n b c v b n W 6 s.C.o.A.SXNX.XJ o.,.-.o./ |.MXDXS.4 C.s.q u b b b b b b m c.S.7.f.$XQ.e 2 X ) zX:XnX",
"`.2X+XR.~ X U.S.,.8./.G.y b v b v b b v v v.M.O.-.m.dXE.}.I.6.0.i.y.W.E.7XtXU.9.%.B.x.K b c b n b v I c v./.4.:.).U.X U E.+X<X`.",
"q.f..X..R.pXc.>.%.z.H.a I p p b b b b i x.(.5.,.S.T.X { 7XQ.<X`.`.lXR.!.' , _.S.%.3.(.G.y b c v b b L I y v.C.;.>.b.sX5X..|.4.q.",
",.l _ Q.MXSXb.o.b./ 8 u L I v c v b n x._.3.7.%XU.x < o } <X>XvXvXlX1X` % 0 1 U.@Xe.4.(.G.i Z v b b Z L n < d.z.o.N.VXNXT.) j ;.",
"6 k l &XDXlX=XOXT , 9 9 p v n W Z y x.^.r.6.@X9Xz 9 r s -.B.cXFXZXmXM.+.s 6 2 C 9X%X7.3.S.J.i Z Z b b b e t 6 Z OX:XlXVX>X=.k 0 ",
"& 6 :X-XF.:XbXcXP , t 0 w n v L i G.S.4.h.$X+XL v C s ,.,.<.fXFXFXjXd.,.,.s c v Z .X$Xz.4.^.x.y b c c r 6 e X U cXmX>XF.-XOX6 & ",
"7 | oXi.q.;XyXE.5XY & e 8 0 p a x._.w.7.0X+XC c p R 7.%.B.!.E.jXjXE.oXg.%.e.R n c b .XtXf.r.D. .I c 8 e w X T }.4XfX=X&.0./. .= ",
"X.v.M =.].B.A 5X..E.' X 8 8 6 x.(.5.7.$X+Xb c v S h.4.Z.%X!.wX^ R rX!.#XS.4.z.D c b L +X@X7.5.(.c., 8 w * ' |.W.}.G B.].@.=.c.G.",
"fX=.o.s.Q j k s.R.P.7X^ X 6 / Z.8.3.wX XC v v F 7.5.n.sXeX#Xd.< < j.@XdXrXA.r.7.G L z C  X%X7.2.C.s.7 X T 8XW.R.l.h j ( d.#.=.cX",
"2X).h.^ O 6 N M / I.}.I.P T M.%.:.$X9Xc Z v S k.5.S.dXeXsXK.1 d d < x.sXpXwXA.5.e.G c b p 9X&X:.;.z.A U R.6XQ./ V N 6 + R g.).=X",
"0.xXtXo : : < N k 1..XX.jX%X4 >.S.Y.C v v N k.w.n.yXrXiXI.c G k d G u K.yXtXiXn.3.e.G I v c Y.S.>.4 &XjXX..X1.l H 2 % & % tXxXq.",
"[.C.I. .; % & q N j / aXvXzXC.n.L.8 e u S z.w.Z.tXpXsXG.c A G H G G Q u c.iXpXtXC.w.h.A p 0 0 U.A.Z.:XmXsX1.j H 8 * * X  .I.N.[.",
"^.d B H.| 7 = = 6 h B.=X;X,XZXiX& 0 8 5 y.7.A.uXeXiXK.z / D G ] _ G F Q z P.sXeXrXn.e.e.s < 0 * iXZX:X1X:XB.j 6 = = 7  .c.B 4 oX",
"~ d.M k L.P.7 : # Q ].&.F.DXNX7XE % s ;.%.n.uXiXuXH.p G G G _ } ] _ ! Q ( Z H.iXpXsXZ.>.>.5 X { 8XNXVXF.&.]./ + = & P.U.l *.s.U ",
"o T v.f B Y. .O L j.$.0.;XyXT.}.R.) @.>.g./.9XaX .c G G Q _ ] ] ] ] ] G F Q c G.iXdX/.g.,.=.) E.6XQ.lX-Xi.-.s.W % G.U.=.l v.^ % ",
"X # ' j.3 *.| eXs.h N A.OX+.! |.T.zXB.J qX!.#XK.Z G G A _ j.] [ ] ] ] _ F D Q u K.qX!.&X1.B.zXQ.!.) +.:XY.M j h.pX| @.o.l.U % * ",
"* : o I s.3 z.xX*XN T.| 6 H l g.:X:XvXfXE.@X/ 0 G D G _ ] ] ] ] ] ] } _ s.G G G 1 j.qX|.fXvX:X:Xg.+.k 6  .U.@.).xXb.4 l.L # : * ",
"> * , @ P OX'.q.-XmXJ.- & 7 -.i.p.vXFXFXjX( q d d ! ] } _ } ] ] ] ] _ } _ ] D f l 9 E kXFXFXvX`.0.>.7 : : K.bX;Xq.'.$XP # * : * ",
"> : X o I $X[.0.;XmXK.: % 6 -.q.p.cXFXFXjXE 9 d f H ] ] ] } ] _ } _ ] ] ] _ G g h 1 R kXFXFXvXp.q.-.7 : : G.bX-Xq.[.$XP % : * : ",
"; - % Z l.V z.xX).l T. .< M N h.2X:XbXsXE.qXd.9 F F G _ ] ] ] ] } } ] ] _ G G G < _ qXE.fXmX>X,X6.l =.8 | Y.B OXCXz.l l.T + = ; ",
"7 # ~ l.4 B | tXv.3 M U.-Xo.Q 6X(.,XC.<.@X!.#XP.p G H F _ j.] } ] ] ] ] Q Q R u H.@XT.$X1.C.zX!.!.d.@.-Xm.M +.s.tXx.@.j s.~ % & ",
"o T l.V N T.| O L j.%.0.-XlXR.4XI.( N ;.k.oXeXaXK.c Q Q Q ] ] ] _ } _ R A G C x.sXtX#Xg.;.+.[ E.|.Q.yX;X0.;.s.P X  .I.N h z.E # ",
"Y d.o.V I.K.X % @ ' ].&.V.VXNX8X^   s >.%.C.iXrXrXH.Z Q S G _ ] ] ) G Q Q u H.sXtXyXC.>.;.s X E 6XNXSX`.&.].( . & * K.R.k o.d.{ ",
"oXf *.c. .7 * % q k M.;X1XyXSXuX& t 1 5 7.6.n.sXtXsXK.u / D G j.s.G G R p K.gXeXwXY.7.w.s < 0 & sXSX>X<X;XN.k 8 * % 7  .c.=.h oX",
"'.M.U.G.X % = , *.k / sXmXlXM.Y.L.1 8 y A y.w.A.tXpXrXH.C A G F D Q G c H.iXpXtXA.7.g.D v w 9 T.n.B.<XmXaX/ M =.6 : % o  .m.M.'.",
"0.zXtX% : o 6 <.3 ) |. .fX%X3 9.^.Y.C v n D y.7.n.yXuXiXK.z G d d G c H.aX9XyXn.7.f.D b I Z Y.S.-.3 %XjXX.|./ 3 B < : : . tX3Xq.",
";XOXl.E + w M @.J ..6XR.L T b.O.;.@X+Xc L b A z.5.S.dXdXaXJ.8 d d 8 G.sXtXtXS.5.y.G n v Z  X%X:.;.C.A ~ R.}.}./ o.+.w + T l.OX-X",
"nXV j s.^ V j 1.R.~.8X{ , 6 d.B.2.h.@X+XZ b v A w.r.n.uXrXqXs.9 1 j.9XwXyXA.r.k.S b n b  X%Xz.2.C.` , , { 6XR.R.f.j N ( s.j B nX",
"H.G.D $.].C.R .XW.W.' & 0 < 6 c.^.8.g.&X9Xb n v S f.7.Z.%X!.0X' T tXT.$XZ.7.f.F v v I 7X$X7.6.(.v.< 1 e % ' }.W. XG M.'.-.B c.K.",
"* | (.q.&.=XsXW.5XP * r 1 0 v K x.^.2.f.wX+Xc b I G e.;.g./.Q.jXjX|.(.f.,.7.A p L A .X%X7.3.(.G.i z 2 8 w : ~ R.4XgX=X&.0.(. .; ",
"% 6 =X;XV.;XvXjXE & 0 9 r p b L y x.(.6.w.&X7XZ n p d ;.>.J fXFXFXfX1.>.>.s z K c 9X&Xy.8.(.x.y L b v e 8 0 X P jXvX:XF.-X:X< . ",
"w M *.%XDX,X:X%XW 7 9 9 Z L c b c a X.S.2.e.@X@XC r 6 s =.N.bXZXFXvXC.@.s , 9 z .X0X4.w.oX .v b b L b Z 0 8 6 A %X:XlXSX,X@.N 6 ",
"<.k 6.I.MXSXC.M Z.) 6 p W v b b c b v x.^.5.f.%XU.r 0 o _ ,X<XvXnX<X1X[   8 9 Y.@Xz.8.).x.m Z b L b v I p 6 / N.+.C.SXMXL.f.l -.",
"q.6.}...}.rXx.>.O.M.H.K b u v b n b c y x.(.5.>.S.U.7 ' 8XQ.<Xp.p.zXQ.|.( & !._.%.3.(.G.y c b b b b L L y H.N.;.>.v.pX!...E.f.0.",
"p.:X.XW.T 7 c.^.>.2./.G.p p v b c b b v v x.z.;.-.A.sX5X6XP.6.0.q.h.Q.R.6XrXY.9.O.C.v.v I b b b b b L b x.(.8.>.^.L.X E W.7X<Xp.",
"xX:XzX_   8 9 Y.@Xg.7.S.H.a b b v b b v c , ) A.j Z.SXNX.XJ V :.;.=.G !.NXZXS.3 Z._ 6 b L b b b L b n G.(.2.g.%XY.q 9   ) zXOXxX",
"FXvXN.+.s 8 0 z  X%Xk.5./. .i Z c v v n e r < R @X1X>XAX>X3 H 6 , *.+.,XZXlX1XOXP < 8 0 b I b b b i G.(.2.g.&X+XZ 0 6 s M S.bXZX",
"FXfXd.-.,.d y I c !.%X7.6.(.x.v I b c r r t X P fXmX=XV.;XOX< : % e OX-X`.:XbXgXE   0 r e Z L b n c.^.4.7.%X+Xc I p d ,.$.1.fXFX",
"fXP.9X7.%.e.A I c L +X#Xg.3.^.J.K u 9 0 w X ' 8X~.gX=Xa.0._.G.: ; P.m.0.&.-XfX..6X' = r 8 0 b y c.^.5.g.&X XZ b I S w.,.y.#XP.jX",
"` !.+X(.Z.r.z.G c n b  X%Xf.5.(.v.6 9 6 & ~ |.}.J.d.M.].-.l T.H.G.Y.j -.].M.) R.E.6X~ & 0 9 8 x.^.w.g.wX.Xb v v S h.r.Z.oX@X+XT ",
"9 ) %XtXrXn.3.y.A i I b  X@X7.2.M./ 7 , ' }.W..XJ *.k ( l.4 B bXmX@.o.j.( k *.d.|.E.E.' X 6 d.b.5.7.%X+Xb v v S k.w.A.rXeX0X) < ",
"f 9 G.yXeXyXb.7.h.F b c Z .X%X,.%.b.~ T 7X..U.d.3 M 6 % ^ s.OX=XOX-Xh.T # < =.4 d.|.W.7XE T C.O.>.@X XZ c L A 7.7.A.yXuXsXH.8 d ",
"f G z G.iXtXrXm.2.w.D K p c L.).<.4 %XfXW.}.1.$.N 6 * X o 7XCX0.q.xXeX@ * & 7 H $.1.R.4XjX%Xj >.).Y.z K i D e.5.Y.rXrXaXJ.z F d ",
"G D ! z H.aXeXyXA.t.M.A u 8 8 _.b.A.,XvXcX^ 3 -.6 : % 7 P.x.N.[.'.C.G.J.& : = 6 =.*.G cXvX>XA.b.(.8 9 p R g.w.A.uXpXiXK.p Q F G ",
"s.G G G C K.tXyXrXn.e.7.d q 6 & pXHX>X-X=XN.l 6 & : &  .T.=.h #XoXl l U.K.  : & 6 l N.=X=XlXSXtXX 8 8 d g.w.A.rXwXrXJ.c S ! ! ] ",
"} _ Q D G u  .iXeXtXZ.;.;.d & ' E.MXSXF.&.'.) # * : X.H.=.3 v.Y L b.l =.Y. .7 = + ) ].&.F.AXNXE.' X s >.>.Z.uXdXgXG.z G F Q _ } ",
"] ] ] G G G c H.fX7X#X7.>.j ) 7X..T.lX].u.o.l.^ . P.L.M *.s.^ @   ' j.3 *.L.W.% ^ l.-.u.-X>X.X..7X) *.:.5.#XdXsXK.c Q G G _ ] ] ",
"] ] j._ G G A C G.7X@X(.1.N.<X+XI.J *.-X^.M h l.0XU.N 4 v.E % * * + E z.o.N R.0Xl.4 N /.OX$.1.P..XzXz.d./.9XqXG.Z G D G _ } ] ] ",
"x.] ] ] _ G F H < ) qXI.fXvX:X<X6.3 B 6 J.L.B OXxXN.h l.^ . : : = : % E h.h C.zX-XB H.H., M @.6.,X:XvXcXJ.qX_ 1 D G ! ] [ ] ] ] ",
"] [ } ] ] s.G f d 8 [ gXFXFXnX'.0.:.w % ; G.cX;Xq.].oXY % * : - = 7 ; $ E /.'.q.2XmXG.* o 6 >.0.`.vXFXFXkX^ 1 d f ! ] } ] | ] ] "
};
